<svg width="20" height="18" viewBox="0 0 20 18" fill="none" xmlns="http://www.w3.org/2000/svg">
<path d="M11.1621 3.55857C10.7806 3.5173 10.393 3.49365 10 3.48777C8.28292 3.49538 6.50295 3.91305 4.81812 4.71337C3.56715 5.33207 2.34857 6.20552 1.29028 7.28293C0.770533 7.83293 0.107183 8.6293 0 9.47897C0.0126667 10.215 0.80255 11.1235 1.29028 11.675C2.28267 12.7101 3.46952 13.5586 4.81812 14.2446C4.86395 14.2669 4.90995 14.2888 4.95605 14.3105L3.70485 16.4956L5.40493 17.5003L14.5952 1.49977L12.9588 0.499634L11.1621 3.55857V3.55857ZM15.0427 4.64988L13.7939 6.81417C14.3684 7.56053 14.7095 8.48093 14.7095 9.47897C14.7095 11.9666 12.6008 13.9834 9.99877 13.9834C9.88628 13.9834 9.77727 13.9712 9.66673 13.9638L8.84032 15.3945C9.22145 15.4353 9.60682 15.4651 9.99998 15.4702C11.7187 15.4625 13.4977 15.04 15.1807 14.2446C16.4316 13.6259 17.6514 12.7525 18.7097 11.675C19.2295 11.1251 19.8928 10.3287 20 9.47897C19.9873 8.74295 19.1974 7.83448 18.7097 7.28292C17.7173 6.24782 16.5293 5.39937 15.1807 4.71333C15.1351 4.69127 15.0885 4.67142 15.0427 4.64988V4.64988ZM9.99878 4.9746C10.1129 4.9746 10.2261 4.97917 10.3381 4.9868L9.37012 6.66282C8.01155 6.93825 6.99218 8.09415 6.99218 9.47777C6.99218 9.82534 7.0562 10.1581 7.17407 10.4665C7.1742 10.4669 7.17393 10.4674 7.17407 10.4678L6.2036 12.1487C5.62775 11.4016 5.28807 10.4782 5.28807 9.47895C5.28808 6.99137 7.3968 4.97458 9.99878 4.9746V4.9746ZM12.8149 8.50852L10.6336 12.2878C11.9848 12.0072 12.9968 10.8566 12.9968 9.47777C12.9968 9.13654 12.9287 8.81212 12.8149 8.50852V8.50852Z" fill="black"/>
</svg>
