<svg width="18" height="14" viewBox="0 0 18 14" fill="none" xmlns="http://www.w3.org/2000/svg">
<path d="M16.7141 6.13496C17.1091 6.65163 17.1091 7.34913 16.7141 7.86496C15.4699 9.48913 12.4849 12.8333 8.99993 12.8333C5.51493 12.8333 2.52993 9.48913 1.28576 7.86496C1.09358 7.61757 0.989258 7.31322 0.989258 6.99996C0.989258 6.68669 1.09358 6.38235 1.28576 6.13496C2.52993 4.51079 5.51493 1.16663 8.99993 1.16663C12.4849 1.16663 15.4699 4.51079 16.7141 6.13496V6.13496Z" stroke="black" stroke-width="1.66667" stroke-linecap="round" stroke-linejoin="round"/>
<path d="M9 9.5C10.3807 9.5 11.5 8.38071 11.5 7C11.5 5.61929 10.3807 4.5 9 4.5C7.61929 4.5 6.5 5.61929 6.5 7C6.5 8.38071 7.61929 9.5 9 9.5Z" stroke="black" stroke-width="1.66667" stroke-linecap="round" stroke-linejoin="round"/>
</svg>
